<?xml version="1.0" encoding="utf-8"?>
<!DOCTYPE svg PUBLIC "-//W3C//DTD SVG 1.1//EN" "http://www.w3.org/Graphics/SVG/1.1/DTD/svg11.dtd">
<svg version="1.1" id="图形" xmlns="http://www.w3.org/2000/svg" xmlns:xlink="http://www.w3.org/1999/xlink" x="0px" y="0px" width="1024px" height="1024px" viewBox="0 0 1024 1024" enable-background="new 0 0 1024 1024" xml:space="preserve">
  <path fill="#cdcdcd" d="M460.8 760.8l204.8 0 0-102.4-204.8 0 0 102.4ZM640 453.6c153.6 0 281.6-128 281.6-281.6S793.6-109.6 640-109.6c-153.6 0-281.6 128-281.6 281.6S486.4 453.6 640 453.6M640 556c-209.92 0-384-168.96-384-384S430.08-212 640-212c209.92 0 384 168.96 384 384S855.04 556 640 556L640 556zM640 238.56c-40.96 0-76.8-35.84-76.8-76.8 0-40.96 35.84-76.8 76.8-76.8s76.8 35.84 76.8 76.8C716.8 207.84 680.96 238.56 640 238.56L640 238.56zM640 146.4c-15.36 0-25.6 10.24-25.6 25.6l0 204.8C614.4 392.16 624.64 402.4 640 402.4S665.6 392.16 665.6 376.8l0-204.8C665.6 156.64 655.36 146.4 640 146.4zM819.2 120.8l-153.6 0c-15.36 0-25.6 10.24-25.6 25.6 0 15.36 10.24 25.6 25.6 25.6l153.6 0c15.36 0 25.6-10.24 25.6-25.6C844.8 131.04 834.56 120.8 819.2 120.8zM460.8 812 409.6 812C384 812 358.4 791.52 358.4 760.8l0-153.6c0-30.72 20.48-51.2 51.2-51.2l51.2 0c30.72 0 51.2 20.48 51.2 51.2L512 760.8C512 791.52 491.52 812 460.8 812zM460.8 607.2 409.6 607.2 409.6 760.8l51.2 0L460.8 607.2zM256 760.8c0 30.72-20.48 51.2-51.2 51.2L153.6 812C122.88 812 102.4 791.52 102.4 760.8l0-153.6c0-30.72 20.48-51.2 51.2-51.2l51.2 0c30.72 0 51.2 20.48 51.2 51.2L256 760.8zM204.8 607.2 153.6 607.2 153.6 760.8l51.2 0L204.8 607.2zM768 760.8c0 30.72-20.48 51.2-51.2 51.2l-51.2 0c-30.72 0-51.2-20.48-51.2-51.2l0-153.6c0-30.72 20.48-51.2 51.2-51.2l51.2 0c30.72 0 51.2 20.48 51.2 51.2L768 760.8zM716.8 607.2l-51.2 0L665.6 760.8l51.2 0L716.8 607.2zM230.4 95.2C189.44 95.2 153.6 131.04 153.6 172S189.44 248.8 230.4 248.8 307.2 212.96 307.2 172 271.36 95.2 230.4 95.2zM230.4 197.6C215.04 197.6 204.8 187.36 204.8 172S215.04 146.4 230.4 146.4 256 156.64 256 172 245.76 197.6 230.4 197.6zM230.4 351.2C189.44 351.2 153.6 387.04 153.6 428S189.44 504.8 230.4 504.8 307.2 468.96 307.2 428 271.36 351.2 230.4 351.2zM230.4 453.6C215.04 453.6 204.8 443.36 204.8 428S215.04 402.4 230.4 402.4 256 412.64 256 428 245.76 453.6 230.4 453.6zM204.8 760.8l204.8 0 0-102.4-204.8 0 0 102.4ZM819.2 422.88l102.4-76.8L921.6 658.4c0 56.32-46.08 102.4-102.4 102.4l-102.4 0 0-102.4 102.4 0L819.2 422.88zM348.16-7.2 102.4-7.2 102.4 658.4l51.2 0L153.6 760.8 102.4 760.8C46.08 760.8 0 714.72 0 658.4l0-665.6c0-56.32 46.08-102.4 102.4-102.4l337.92 0L348.16-7.2z" transform="translate(0, 812) scale(1, -1)"/>
</svg>
