<?xml version="1.0" encoding="utf-8"?>
<!DOCTYPE svg PUBLIC "-//W3C//DTD SVG 1.1//EN" "http://www.w3.org/Graphics/SVG/1.1/DTD/svg11.dtd">
<svg version="1.1" id="图形" xmlns="http://www.w3.org/2000/svg" xmlns:xlink="http://www.w3.org/1999/xlink" x="0px" y="0px" width="1024px" height="1024px" viewBox="0 0 1024 1024" enable-background="new 0 0 1024 1024" xml:space="preserve">
  <path fill="#56abe4" d="M499.712 772.064q95.232 1.024 178.688-34.304t146.432-96.768 99.84-144.384 37.888-178.176q1.024-91.136-31.232-170.496t-88.576-140.8-133.12-100.864-164.864-48.64q-23.552-3.072-49.664-5.12t-58.368-3.072-71.168 0-88.064 5.12q-108.544 11.264-160.768 28.16t-43.008 18.944q58.368 9.216 95.232 30.72 20.48 11.264 17.408 32.256t-20.48 40.448q-52.224 58.368-85.504 136.192t-35.328 167.936q-1.024 95.232 34.304 179.2t97.28 146.944 144.896 99.328 178.176 37.376zM675.84 310.24q0-22.528 15.872-38.4t38.4-15.872 38.4 15.872 15.872 38.4q0 23.552-15.872 38.912t-38.4 15.36-38.4-15.36-15.872-38.912zM449.536 310.24q0-22.528 15.872-38.4t38.4-15.872 38.4 15.872 15.872 38.4q0 23.552-15.872 38.912t-38.4 15.36-38.4-15.36-15.872-38.912zM224.256 310.24q0-22.528 15.36-38.4t38.912-15.872q22.528 0 38.4 15.872t15.872 38.4q0 23.552-15.872 38.912t-38.4 15.36q-23.552 0-38.912-15.36t-15.36-38.912z" transform="translate(0, 812) scale(1, -1)"/>
</svg>
