<?xml version="1.0" encoding="utf-8"?>
<!DOCTYPE svg PUBLIC "-//W3C//DTD SVG 1.1//EN" "http://www.w3.org/Graphics/SVG/1.1/DTD/svg11.dtd">
<svg version="1.1" id="图形" xmlns="http://www.w3.org/2000/svg" xmlns:xlink="http://www.w3.org/1999/xlink" x="0px" y="0px" width="1024px" height="1024px" viewBox="0 0 1024 1024" enable-background="new 0 0 1024 1024" xml:space="preserve">
  <path fill="#56abe4" d="M756.394426 2.481849 149.201623 2.481849 149.201623 439.592027l139.881037 0c0 0 34.28386 47.939601 103.863115 92.934909L102.490316 532.526936c-25.794179 0-46.711307-20.646181-46.711307-46.458423l0-530.045087c0-25.541295 20.917128-46.458423 46.711307-46.458423L803.08767-90.434997c25.776116 0 46.693244 20.682307 46.693244 46.458423L849.780914 221.136285l-93.386488-76.389063L756.394426 2.481849 756.394426 2.481849zM678.524184 376.858705l0-155.43341 311.372588 232.274052L678.524184 688.195167l0-145.209667c-376.580561 0-389.206703-399.68333-389.206703-399.68333C395.872006 317.232246 474.193826 376.858705 678.524184 376.858705L678.524184 376.858705zM678.524184 376.858705" transform="translate(0, 812) scale(1, -1)"/>
</svg>
